<svg xmlns="http://www.w3.org/2000/svg" xmlns:xlink="http://www.w3.org/1999/xlink" width="269" height="811" viewBox="0 0 269 811">
  <defs>
    <filter id="Rectangle_2" x="0" y="0" width="269" height="811" filterUnits="userSpaceOnUse">
      <feOffset dx="4" dy="3" input="SourceAlpha"/>
      <feGaussianBlur stdDeviation="3" result="blur"/>
      <feFlood flood-color="#505050" flood-opacity="0.4"/>
      <feComposite operator="in" in2="blur"/>
      <feComposite in="SourceGraphic"/>
    </filter>
  </defs>
  <g id="Group_151" data-name="Group 151" transform="translate(5 -1)">
    <g transform="matrix(1, 0, 0, 1, -5, 1)" filter="url(#Rectangle_2)">
      <path id="Rectangle_2-2" data-name="Rectangle 2" d="M0,0H227a24,24,0,0,1,24,24V793a0,0,0,0,1,0,0H0a0,0,0,0,1,0,0V0A0,0,0,0,1,0,0Z" transform="translate(5 6)" fill="#7286d3"/>
    </g>
    <g id="Group_150" data-name="Group 150" transform="translate(51.7 793.1) rotate(-90)" opacity="0.05">
      <path id="Path_426" data-name="Path 426" d="M149.355,37.122c-1.759-3.517-4.4-7.035-7.035-8.794a23.978,23.978,0,0,0-14.07-4.4c-12.311,0-20.225,7.914-20.225,18.466,0,4.4.879,7.914,4.4,10.552,3.517,3.517,7.914,5.276,13.19,7.914l11.432,5.276c7.035,3.517,14.07,6.155,18.466,11.432,6.155,6.155,8.794,13.19,8.794,21.984,0,22.863-16.708,37.812-38.691,37.812-7.914,0-18.466-1.759-26.381-9.673-6.155-6.156-9.673-14.07-11.432-21.1l13.19-3.517a32.572,32.572,0,0,0,7.035,15.828,23.825,23.825,0,0,0,17.587,7.035c16.708,0,24.622-11.432,24.622-23.743,0-5.276-1.759-10.552-6.155-14.07-3.517-3.517-7.914-5.276-14.949-8.794l-10.552-5.276c-4.4-1.759-10.552-4.4-15.828-9.673S93.956,53.83,93.956,44.157c0-18.466,14.07-31.657,34.295-31.657A35.453,35.453,0,0,1,147.6,17.776a32.868,32.868,0,0,1,11.432,13.19Z" transform="translate(558.796 1.559)" fill="#fff"/>
      <path id="Path_425" data-name="Path 425" d="M116.271,81.969,76.7,12.5H92.528l30.777,54.52L154.962,12.5h15.828l-40.45,69.469V134.73H117.15V81.969Z" transform="translate(475.806 1.559)" fill="#fff"/>
      <path id="Path_424" data-name="Path 424" d="M128.855,37.122c-1.759-3.517-4.4-7.035-7.035-8.794a23.978,23.978,0,0,0-14.07-4.4c-12.311,0-20.225,7.914-20.225,18.466,0,4.4.879,7.914,4.4,10.552,3.517,3.517,7.914,5.276,13.19,7.914l11.432,5.276c7.035,3.517,14.07,6.155,18.466,11.432,6.155,6.155,8.794,13.19,8.794,21.984,0,22.863-16.708,37.812-38.692,37.812-7.914,0-18.466-1.759-26.381-9.673-6.155-6.156-9.673-14.07-11.432-21.1l13.19-3.517A32.572,32.572,0,0,0,87.525,118.9a23.825,23.825,0,0,0,17.587,7.035c16.708,0,24.622-11.432,24.622-23.743,0-5.276-1.759-10.552-6.155-14.07-3.517-3.517-7.914-5.276-14.949-8.794L98.078,74.055c-4.4-1.759-10.552-4.4-15.828-9.673S73.456,53.83,73.456,44.157c0-18.466,14.07-31.657,34.295-31.657A35.453,35.453,0,0,1,127.1,17.776a32.868,32.868,0,0,1,11.432,13.19Z" transform="translate(399.029 1.559)" fill="#fff"/>
      <path id="Path_423" data-name="Path 423" d="M101.488,25.69V134.73H88.3V25.69H58.4V12.5h72.986V25.69Z" transform="translate(327.029 1.559)" fill="#fff"/>
      <path id="Path_422" data-name="Path 422" d="M67.99,12.6V133.951H54.8V12.6Z" transform="translate(301.61 2.338)" fill="#fff"/>
      <path id="Path_421" data-name="Path 421" d="M65.784,12.6c7.035,0,19.346.879,28.139,7.914,3.517,2.638,10.552,10.552,10.552,25.5,0,6.155-.879,16.708-12.311,23.743,16.708,4.4,22.863,19.346,22.863,30.777s-6.155,21.1-12.311,26.381c-9.673,7.914-21.1,7.914-29.019,7.914H43.8V12.6ZM56.99,65.361H67.543c7.035,0,23.743-1.759,23.743-20.225,0-20.225-19.346-20.225-23.743-20.225H56.99Zm0,56.279H72.819c7.914,0,15.828-.879,21.1-5.276a21.768,21.768,0,0,0,7.914-16.708c0-9.673-5.276-14.949-10.552-17.587-4.4-3.517-10.552-4.4-20.225-4.4H56.99V121.64Z" transform="translate(213.243 2.338)" fill="#fff"/>
      <path id="Path_420" data-name="Path 420" d="M52.746,12.6c7.914,0,20.225.879,29.9,7.035,7.035,4.4,13.19,14.07,13.19,27.26,0,18.466-12.311,32.536-30.777,33.415l38.692,54.52H87.041L50.108,81.19H46.59V134.83H33.4V12.6ZM46.59,68.879h8.794c16.708,0,27.26-7.914,27.26-21.984,0-7.035-1.759-13.19-9.673-17.587C67.695,25.79,61.539,25.79,55.384,25.79H47.47V68.879Z" transform="translate(134.828 2.338)" fill="#fff"/>
      <path id="Path_419" data-name="Path 419" d="M16.1,75.613C16.1,39.56,44.239,12.3,79.413,12.3s63.313,26.381,63.313,63.313c0,36.054-28.139,63.313-63.313,63.313S16.1,111.667,16.1,75.613Zm14.07,0c0,28.139,21.984,50.123,49.244,50.123s49.244-21.984,49.244-50.123S106.673,25.49,79.413,25.49,30.17,47.474,30.17,75.613Z" transform="translate(0 0)" fill="#fff"/>
    </g>
  </g>
</svg>
